<svg xmlns="http://www.w3.org/2000/svg" viewBox="0 0 800 500" font-family="Helvetica, Arial, sans-serif">
      <defs><marker id="farr" viewBox="0 0 10 10" refX="9" refY="5" markerWidth="8" markerHeight="8" orient="auto-start-reverse">
        <path d="M0,0 L10,5 L0,10 z" fill="#1a1a1a"/></marker></defs>
      <rect width="800" height="500" fill="#ffffff"/>
      <text x="20" y="30" font-size="14" font-weight="600" fill="#1a1a1a">FLOWCHART · MatVerse Organism cycle</text>
      <text x="20" y="48" font-size="10" fill="#666">Problem → MMNB → COG → Ω-Gate → Run → new MMNB</text>
      <line x1="230" y1="265" x2="290" y2="265"
                  stroke="#1a1a1a" stroke-width="1.2" marker-end="url(#farr)"/><line x1="400" y1="265" x2="460" y2="265"
                  stroke="#1a1a1a" stroke-width="1.2" marker-end="url(#farr)"/><line x1="560" y1="265" x2="620" y2="265"
                  stroke="#1a1a1a" stroke-width="1.2" marker-end="url(#farr)"/><line x1="730" y1="265" x2="620" y2="375"
                  stroke="#1a1a1a" stroke-width="1.2" marker-end="url(#farr)"/><line x1="730" y1="375" x2="460" y2="375"
                  stroke="#1a1a1a" stroke-width="1.2" marker-end="url(#farr)"/><line x1="580" y1="375" x2="290" y2="265"
                  stroke="#1a1a1a" stroke-width="1.2" marker-end="url(#farr)"/>
      
        <g>
          <rect x="100" y="240" width="130" height="50" fill="#cfe2ff" stroke="#1a1a1a" stroke-width="1" rx="4"/>
          <text x="165" y="269" text-anchor="middle" font-size="12" fill="#1a1a1a">Problem</text>
        </g>
      
        <g>
          <rect x="290" y="240" width="110" height="50" fill="#d8f0d8" stroke="#1a1a1a" stroke-width="1" rx="4"/>
          <text x="345" y="269" text-anchor="middle" font-size="12" fill="#1a1a1a">MMNB</text>
        </g>
      
        <g>
          <rect x="460" y="240" width="100" height="50" fill="#fff4c2" stroke="#1a1a1a" stroke-width="1" rx="4"/>
          <text x="510" y="269" text-anchor="middle" font-size="12" fill="#1a1a1a">COG</text>
        </g>
      
        <g>
          <rect x="620" y="240" width="110" height="50" fill="#ffd6c2" stroke="#1a1a1a" stroke-width="1" rx="4"/>
          <text x="675" y="269" text-anchor="middle" font-size="12" fill="#1a1a1a">Ω-Gate</text>
        </g>
      
        <g>
          <rect x="620" y="350" width="110" height="50" fill="#d8f0d8" stroke="#1a1a1a" stroke-width="1" rx="4"/>
          <text x="675" y="379" text-anchor="middle" font-size="12" fill="#1a1a1a">Run</text>
        </g>
      
        <g>
          <rect x="460" y="350" width="120" height="50" fill="#d8f0d8" stroke="#1a1a1a" stroke-width="1" rx="4"/>
          <text x="520" y="379" text-anchor="middle" font-size="12" fill="#1a1a1a">new MMNB</text>
        </g>
      
    </svg>